<mxfile host="app.diagrams.net" modified="2022-09-03T02:57:52.325Z" agent="5.0 (Windows NT 10.0; Win64; x64) AppleWebKit/537.36 (KHTML, like Gecko) Chrome/104.0.5112.102 Safari/537.36 Edg/104.0.1293.70" etag="lJ86_XwVfhK__-Dc_W-A" version="20.2.8" type="github">
  <diagram id="EX7gkqpgY4ono2qne7ta" name="第 1 页">
    <mxGraphModel dx="2036" dy="674" grid="1" gridSize="10" guides="1" tooltips="1" connect="1" arrows="1" fold="1" page="1" pageScale="1" pageWidth="827" pageHeight="1169" math="0" shadow="0">
      <root>
        <mxCell id="0" />
        <mxCell id="1" parent="0" />
        <mxCell id="XOuI5h1wmfDcTH0eS6Nm-5" value="" style="edgeStyle=orthogonalEdgeStyle;rounded=0;orthogonalLoop=1;jettySize=auto;html=1;" edge="1" parent="1" source="XOuI5h1wmfDcTH0eS6Nm-1" target="XOuI5h1wmfDcTH0eS6Nm-4">
          <mxGeometry relative="1" as="geometry" />
        </mxCell>
        <mxCell id="XOuI5h1wmfDcTH0eS6Nm-15" style="edgeStyle=orthogonalEdgeStyle;rounded=0;orthogonalLoop=1;jettySize=auto;html=1;entryX=0;entryY=0.5;entryDx=0;entryDy=0;exitX=0.5;exitY=1;exitDx=0;exitDy=0;" edge="1" parent="1" source="XOuI5h1wmfDcTH0eS6Nm-1" target="XOuI5h1wmfDcTH0eS6Nm-14">
          <mxGeometry relative="1" as="geometry">
            <Array as="points">
              <mxPoint x="200" y="280" />
              <mxPoint x="280" y="280" />
            </Array>
          </mxGeometry>
        </mxCell>
        <mxCell id="XOuI5h1wmfDcTH0eS6Nm-18" value="Preload" style="edgeLabel;html=1;align=center;verticalAlign=middle;resizable=0;points=[];fontStyle=1" vertex="1" connectable="0" parent="XOuI5h1wmfDcTH0eS6Nm-15">
          <mxGeometry x="-0.0889" y="-1" relative="1" as="geometry">
            <mxPoint x="17" y="-11" as="offset" />
          </mxGeometry>
        </mxCell>
        <mxCell id="XOuI5h1wmfDcTH0eS6Nm-1" value="&lt;b&gt;登录&lt;/b&gt;" style="ellipse;html=1;aspect=fixed;verticalAlign=bottom;labelPosition=center;verticalLabelPosition=top;align=center;fillColor=#dae8fc;strokeColor=#6c8ebf;" vertex="1" parent="1">
          <mxGeometry x="190" y="170" width="20" height="20" as="geometry" />
        </mxCell>
        <mxCell id="XOuI5h1wmfDcTH0eS6Nm-9" value="" style="edgeStyle=orthogonalEdgeStyle;rounded=0;orthogonalLoop=1;jettySize=auto;html=1;" edge="1" parent="1" source="XOuI5h1wmfDcTH0eS6Nm-4" target="XOuI5h1wmfDcTH0eS6Nm-8">
          <mxGeometry relative="1" as="geometry" />
        </mxCell>
        <mxCell id="XOuI5h1wmfDcTH0eS6Nm-21" style="edgeStyle=orthogonalEdgeStyle;rounded=0;orthogonalLoop=1;jettySize=auto;html=1;entryX=0.086;entryY=-0.004;entryDx=0;entryDy=0;entryPerimeter=0;" edge="1" parent="1" source="XOuI5h1wmfDcTH0eS6Nm-4" target="XOuI5h1wmfDcTH0eS6Nm-14">
          <mxGeometry relative="1" as="geometry" />
        </mxCell>
        <mxCell id="XOuI5h1wmfDcTH0eS6Nm-4" value="&lt;b&gt;转账&lt;/b&gt;" style="ellipse;html=1;aspect=fixed;verticalAlign=bottom;labelPosition=center;verticalLabelPosition=top;align=center;fillColor=#dae8fc;strokeColor=#6c8ebf;" vertex="1" parent="1">
          <mxGeometry x="290" y="170" width="20" height="20" as="geometry" />
        </mxCell>
        <mxCell id="XOuI5h1wmfDcTH0eS6Nm-13" value="" style="edgeStyle=orthogonalEdgeStyle;rounded=0;orthogonalLoop=1;jettySize=auto;html=1;" edge="1" parent="1" source="XOuI5h1wmfDcTH0eS6Nm-8" target="XOuI5h1wmfDcTH0eS6Nm-12">
          <mxGeometry relative="1" as="geometry" />
        </mxCell>
        <mxCell id="XOuI5h1wmfDcTH0eS6Nm-22" style="edgeStyle=orthogonalEdgeStyle;rounded=0;orthogonalLoop=1;jettySize=auto;html=1;entryX=0.5;entryY=0;entryDx=0;entryDy=0;" edge="1" parent="1">
          <mxGeometry relative="1" as="geometry">
            <mxPoint x="397" y="190" as="sourcePoint" />
            <mxPoint x="397" y="240" as="targetPoint" />
          </mxGeometry>
        </mxCell>
        <mxCell id="XOuI5h1wmfDcTH0eS6Nm-8" value="&lt;b&gt;支付&lt;/b&gt;" style="ellipse;html=1;aspect=fixed;verticalAlign=bottom;labelPosition=center;verticalLabelPosition=top;align=center;fillColor=#dae8fc;strokeColor=#6c8ebf;" vertex="1" parent="1">
          <mxGeometry x="390" y="170" width="20" height="20" as="geometry" />
        </mxCell>
        <mxCell id="XOuI5h1wmfDcTH0eS6Nm-12" value="&lt;b&gt;结果&lt;/b&gt;" style="ellipse;html=1;aspect=fixed;verticalAlign=bottom;labelPosition=center;verticalLabelPosition=top;align=center;fillColor=#dae8fc;strokeColor=#6c8ebf;" vertex="1" parent="1">
          <mxGeometry x="490" y="170" width="20" height="20" as="geometry" />
        </mxCell>
        <mxCell id="XOuI5h1wmfDcTH0eS6Nm-23" style="edgeStyle=orthogonalEdgeStyle;rounded=0;orthogonalLoop=1;jettySize=auto;html=1;entryX=1;entryY=1;entryDx=0;entryDy=0;" edge="1" parent="1">
          <mxGeometry relative="1" as="geometry">
            <mxPoint x="403" y="240" as="sourcePoint" />
            <mxPoint x="403.0710678118653" y="187.0710678118653" as="targetPoint" />
            <Array as="points">
              <mxPoint x="403" y="230" />
              <mxPoint x="403" y="230" />
            </Array>
          </mxGeometry>
        </mxCell>
        <mxCell id="XOuI5h1wmfDcTH0eS6Nm-14" value="决策引擎" style="swimlane;" vertex="1" parent="1">
          <mxGeometry x="280" y="240" width="240" height="160" as="geometry" />
        </mxCell>
        <mxCell id="XOuI5h1wmfDcTH0eS6Nm-20" value="&lt;b&gt;登录&lt;/b&gt;" style="ellipse;html=1;aspect=fixed;verticalAlign=bottom;labelPosition=center;verticalLabelPosition=top;align=center;fillColor=#dae8fc;strokeColor=#6c8ebf;" vertex="1" parent="1">
          <mxGeometry x="-30" y="240" width="20" height="20" as="geometry" />
        </mxCell>
      </root>
    </mxGraphModel>
  </diagram>
</mxfile>
